<?xml version="1.0" ?><!-- Uploaded to: SVG Repo, www.svgrepo.com, Generator: SVG Repo Mixer Tools -->
<svg width="800px" height="800px" viewBox="0 0 512 512" data-name="Слой 1" id="Слой_1" xmlns="http://www.w3.org/2000/svg"><defs><style>.cls-1{fill:#cdccd2;}.cls-2{fill:#ffffff;}.cls-3{fill:#e82f0f;}</style></defs><title/><circle class="cls-1" cx="256" cy="251" r="207.77"/><circle class="cls-2" cx="256" cy="251.23" r="194.41"/><path class="cls-3" d="M227,270.65l-37.81-16.32c-0.35-.14-7.22-2.38-12.42,1.46a15.14,15.14,0,0,0-5.74,10v31.11c0,4,3,8,6.84,10.28,4.85,2.86,11.1.74,12.57,0.16,11-4.25,22.21-8.5,33.21-12.74C223.62,294.62,254.34,286.13,227,270.65Z"/><path class="cls-3" d="M235.54,312.9l-24.85,32.84c-0.22.31-3.83,5.64-1.34,11.6a12.79,12.79,0,0,0,8.57,7.15l30.22,7.41a12,12,0,0,0,11.42-3.39c3.93-4,3.26-10.2,3-11.77l-4.52-35.09S257.1,290,235.54,312.9Z"/><path class="cls-3" d="M277.19,317.25l21.3,35.25c0.21,0.32,3.82,5.65,10.28,5.54a12.79,12.79,0,0,0,9.82-5.31l18.07-25.32a12,12,0,0,0,1.08-11.86c-2.29-5.15-8.26-6.81-9.8-7.19l-34.26-8.8S263.91,288.74,277.19,317.25Z"/><path class="cls-3" d="M289.65,273.17l41-4.28c0.38-.05,6.74-1.05,9.39-6.95a12.79,12.79,0,0,0-.63-11.14l-15.23-27.13a12,12,0,0,0-10.27-6c-5.63-.12-9.68,4.58-10.68,5.81l-22.54,27.27S258.2,273.07,289.65,273.17Z"/><path class="cls-3" d="M253.69,155.5l3.86,89.43a9.2,9.2,0,0,1,0,1.06c-0.24,3.39-2.3,19.59-19.17,2.92-14-13.85-38.41-54.86-49.8-74.63a9.82,9.82,0,0,1,5.79-14.35l46.8-13.46A9.82,9.82,0,0,1,253.69,155.5Z"/></svg>