<?xml version="1.0" ?><!-- Uploaded to: SVG Repo, www.svgrepo.com, Generator: SVG Repo Mixer Tools -->
<svg width="800px" height="800px" viewBox="0 0 512 512" data-name="Слой 1" id="Слой_1" xmlns="http://www.w3.org/2000/svg"><defs><style>.cls-1{fill:#cdccd2;}.cls-2{fill:#ffffff;}.cls-3{fill:#235789;}.cls-4{fill:none;}</style></defs><title/><circle class="cls-1" cx="255" cy="253" r="207.77"/><circle class="cls-2" cx="256" cy="252.52" r="194.41"/><path class="cls-3" d="M273.41,167h0l-86-3.29a10,10,0,0,0-10.35,10V348.57a0.12,0.12,0,0,0,.12.12l36.76-.49a0.12,0.12,0,0,0,.12-0.12v-55a0.12,0.12,0,0,1,.12-0.12h59.29c31.71,0,57.42-28.12,57.42-63S305.12,167,273.41,167Zm12.19,81.29c-5,5-11.94,8.71-19.59,8.71H214.12a0.12,0.12,0,0,1-.12-0.12V201.12a0.12,0.12,0,0,1,.12-0.12h51.22c15.21,0,28.09,12,28.37,27.18A27.58,27.58,0,0,1,285.6,248.29Z"/><rect class="cls-4" height="512" width="3172" x="-1596"/></svg>