<?xml version="1.0" encoding="utf-8"?>
<!-- Uploaded to: SVG Repo, www.svgrepo.com, Generator: SVG Repo Mixer Tools -->
<svg width="800px" height="800px" viewBox="0 -63 392 392" xmlns="http://www.w3.org/2000/svg"><defs><style>.a{fill:#ffffff;}.b{fill:#211715;}.c{fill:#a6a2a1;}.d{fill:#f2635f;}</style></defs><path class="a" d="M6,219.211c.051-27.5.382-180.728.431-208.483,0-2.736,2.645-4.949,5.908-4.951,44.67-.02,331.152-.227,367.372-.256,3.326,0,6.019,2.254,6.023,5.044.037,26,.241,178.054.266,208.956C383.805,219.521,8.986,219.211,6,219.211Z"/><path class="b" d="M391.732,6.174A6.125,6.125,0,0,0,385.652,0C349.1.036,51.484.289,6.4.314A6.015,6.015,0,0,0,.435,6.374C.385,40.345.052,225.773,0,259.435a6.127,6.127,0,0,0,6.071,6.191c36.661.042,343.446.331,379.841.374A6.129,6.129,0,0,0,392,259.815C391.974,221.992,391.768,38,391.732,6.174ZM6,219.211c.051-27.5.382-180.728.431-208.483,0-2.736,2.645-4.949,5.908-4.951,44.67-.02,331.152-.227,367.372-.256,3.326,0,6.019,2.254,6.023,5.044.037,26,.241,178.054.266,208.956C383.805,219.521,8.986,219.211,6,219.211Z"/><path class="c" d="M344.173,241.152c-5.332-.007-10.663-.183-15.994-.187a1.624,1.624,0,0,0-1.6,1.6q0,5.935-.006,11.87a1.622,1.622,0,0,0,1.6,1.6c4.564,0,9.128.076,13.692.114.769.006,1.538.015,2.308.016a1.624,1.624,0,0,0,1.6-1.6V242.752a1.6,1.6,0,0,0-3.2,0v11.813l1.6-1.6c-4.553,0-9.106-.076-13.658-.113-.781-.007-1.562-.016-2.342-.017l1.6,1.6q0-5.934.006-11.87l-1.6,1.6c5.331,0,10.662.18,15.994.187A1.6,1.6,0,0,0,344.173,241.152Z"/><path class="c" d="M21.215,247.671c0-1.589,0-3.178,0-3.686a1.353,1.353,0,0,0-1.357-1.353h-1.31a1.357,1.357,0,0,0-1.357,1.38c.018,1.1.018,8.49,0,9.585a1.356,1.356,0,0,0,1.357,1.38h1.31a1.353,1.353,0,0,0,1.357-1.353C21.215,253.117,21.215,249.26,21.215,247.671Z"/><path class="c" d="M28.225,247.671c0-1.589,0-3.178,0-3.686a1.352,1.352,0,0,0-1.357-1.353h-1.31a1.357,1.357,0,0,0-1.357,1.38c.018,1.1.018,8.49,0,9.585a1.356,1.356,0,0,0,1.357,1.38h1.31a1.352,1.352,0,0,0,1.357-1.353C28.225,253.117,28.225,249.26,28.225,247.671Z"/><path class="c" d="M52.206,250.651c0-.879,0-6.077,0-6.358a.749.749,0,0,0-.751-.749h-.724a.751.751,0,0,0-.751.764c.01.606.01,8.388,0,8.994a.75.75,0,0,0,.751.763h.724a.748.748,0,0,0,.751-.748C52.207,253.036,52.206,251.53,52.206,250.651Z"/><path class="c" d="M41.039,253.252a.48.48,0,0,0,.754.326c1.227-.785,5.625-3.919,5.951-4.117a.955.955,0,0,0,.414-.656.98.98,0,0,0-.414-.656c-.326-.2-4.724-3.332-5.951-4.117a.48.48,0,0,0-.754.325C41.036,245.274,41.036,252.342,41.039,253.252Z"/><path class="c" d="M68.968,251.951c-.432,0-1.836,0-2.848,0a1.123,1.123,0,0,1-1.058-1.038v-4.617a1.2,1.2,0,0,1,1.072-1.065c.764,0,2.089-.014,2.849-.014.741-.481,3.594-2.566,5.567-3.859a.67.67,0,0,1,1.041.561c-.007,3.093-.032,10.8-.041,13.8a.672.672,0,0,1-1.075.538C72.727,254.96,69.433,252.28,68.968,251.951Z"/><path class="c" d="M361.566,239.232h-4.634a1.623,1.623,0,0,0-1.6,1.6c0,1.118-.006,2.237-.006,3.355a1.6,1.6,0,0,0,3.2,0c0-1.118.006-2.237.006-3.355l-1.6,1.6h4.634a1.6,1.6,0,1,0,0-3.2Z"/><path class="c" d="M369.4,242.432h4.634l-1.6-1.6c0,1.118.006,2.237.006,3.355a1.6,1.6,0,0,0,3.2,0c0-1.118-.006-2.237-.006-3.355a1.623,1.623,0,0,0-1.6-1.6H369.4a1.6,1.6,0,0,0,0,3.2Z"/><path class="c" d="M361.566,253.925h-4.634l1.6,1.6c0-1.118-.006-2.236-.006-3.354a1.6,1.6,0,0,0-3.2,0c0,1.118.006,2.236.006,3.354a1.623,1.623,0,0,0,1.6,1.6h4.634a1.6,1.6,0,1,0,0-3.2Z"/><path class="c" d="M369.4,257.125h4.634a1.623,1.623,0,0,0,1.6-1.6c0-1.118.006-2.236.006-3.354a1.6,1.6,0,0,0-3.2,0c0,1.118-.006,2.236-.006,3.354l1.6-1.6H369.4a1.6,1.6,0,0,0,0,3.2Z"/><path class="d" d="M113.679,219.281c-5.784,0-96.15-.187-107.648-.187,0,7.344-.031,5.614-.031,11.87,5.066,0,102.947.13,107.679.13Z"/><path class="c" d="M386,219.281c-11.841,0-247.087-.187-270.625-.187,0,7.344-.064,5.614-.064,11.87,10.37,0,261,.13,270.689.13Z"/><path class="a" d="M114.635,214.637a10.02,10.02,0,0,0-9.93,10.4c0,8.126,5.871,10.494,9.93,10.494,4.814,0,9.929-2.368,9.929-10.494A10.019,10.019,0,0,0,114.635,214.637Z"/><path class="b" d="M114.635,213.037a11.657,11.657,0,0,0-11.144,8.787c-1.223,4.959.3,10.768,4.787,13.555a12.929,12.929,0,0,0,11.206.9c4.914-1.945,6.986-7,6.653-12.056a11.755,11.755,0,0,0-11.5-11.188c-2.06-.027-2.061,3.173,0,3.2a8.431,8.431,0,0,1,8.125,6.728c.784,3.6-.189,8.156-3.652,9.994a9.781,9.781,0,0,1-8.044.275c-3.465-1.457-4.846-4.943-4.755-8.526a8.519,8.519,0,0,1,8.326-8.471C116.692,216.21,116.7,213.01,114.635,213.037Z"/><path class="c" d="M77.945,246.452a.4.4,0,0,1,.469-.387,3.013,3.013,0,0,1,2.271,3.246,2.61,2.61,0,0,1-2.282,2.8.4.4,0,0,1-.458-.387Z"/><path class="c" d="M85.511,249.117a8.231,8.231,0,0,0-6.566-7.886.666.666,0,0,0-.771.631c-.01.242-.022.5-.031.732a.657.657,0,0,0,.512.664c1.83.455,4.529,3.07,4.553,5.83-.023,2.76-2.723,5.376-4.553,5.83a.658.658,0,0,0-.512.665c.009.236.021.49.031.732a.667.667,0,0,0,.771.631A8.168,8.168,0,0,0,85.511,249.117Z"/></svg>