<?xml version="1.0" encoding="iso-8859-1"?>
<!-- Uploaded to: SVG Repo, www.svgrepo.com, Generator: SVG Repo Mixer Tools -->
<svg version="1.1" id="Layer_1" xmlns="http://www.w3.org/2000/svg" xmlns:xlink="http://www.w3.org/1999/xlink" 
	 viewBox="0 0 512 512" xml:space="preserve">
<g>
	<path style="fill:#578CAD;" d="M422.265,238.158h-53.58c-4.523,0-8.19-3.666-8.19-8.19s3.667-8.19,8.19-8.19h53.58
		c4.523,0,8.19,3.666,8.19,8.19C430.455,234.492,426.788,238.158,422.265,238.158z"/>
	<path style="fill:#578CAD;" d="M449.302,217.553c-1.44,0-2.898-0.38-4.222-1.177c-3.874-2.337-5.121-7.37-2.785-11.244
		c8.802-14.596,24.224-23.311,41.251-23.311h20.263c4.524,0,8.19,3.666,8.19,8.19s-3.666,8.19-8.19,8.19h-20.263
		c-11.236,0-21.413,5.753-27.224,15.389C454.785,216.141,452.078,217.553,449.302,217.553z"/>
	<path style="fill:#578CAD;" d="M503.81,278.116h-20.263c-16.49,0-31.65-8.296-40.556-22.192c-2.441-3.808-1.332-8.874,2.477-11.315
		c3.809-2.437,8.875-1.332,11.315,2.477c5.88,9.173,15.884,14.65,26.764,14.65h20.263c4.524,0,8.19,3.666,8.19,8.19
		C512,274.449,508.334,278.116,503.81,278.116z"/>
</g>
<path style="fill:#90C8EC;" d="M343.761,163.755c-0.933-0.096-1.879-0.144-2.838-0.144h-7.745h-6.054h-1.693H43.253h-1.689h-6.055
	h-7.745c-0.959,0-1.906,0.048-2.839,0.144C10.925,165.176,0,176.996,0,191.373v70.947v0.002c0,1.309,0.122,2.589,0.298,3.852
	C0.122,267.437,0,268.716,0,270.026v0.002v70.947c0,14.377,10.925,26.197,24.924,27.618c0.933,0.096,1.881,0.144,2.839,0.144h7.745
	h6.055h1.691h282.179h1.693h6.054h7.745c0.959,0,1.906-0.048,2.838-0.144c13.998-1.421,24.924-13.241,24.924-27.618v-70.947v-0.002
	c0-1.309-0.123-2.589-0.298-3.852c0.175-1.262,0.298-2.542,0.298-3.852v-0.002v-70.947
	C368.686,176.996,357.76,165.176,343.761,163.755z"/>
<rect x="80.889" y="294.939" style="fill:#578CAD;" width="212.973" height="94.758"/>
<g>
	<circle style="fill:#3A5D74;" cx="80.889" cy="342.313" r="47.373"/>
	<circle style="fill:#3A5D74;" cx="287.801" cy="342.313" r="47.373"/>
</g>
<path style="fill:#578CAD;" d="M227.77,122.303h9.759c10.266,0,18.588,8.321,18.588,18.589v4.13
	c0,10.264-8.321,18.588-18.588,18.588H131.157c-10.266,0-18.589-8.324-18.589-18.588v-4.13c0-10.268,8.323-18.589,18.589-18.589
	H227.77"/>
<g>
	<path style="fill:#90C8EC;" d="M98.446,342.315c0,9.694-7.86,17.554-17.557,17.554c-9.696,0-17.558-7.86-17.558-17.554
		c0-9.699,7.862-17.558,17.558-17.558C90.586,324.757,98.446,332.617,98.446,342.315z"/>
	<path style="fill:#90C8EC;" d="M305.352,342.315c0,9.694-7.86,17.554-17.556,17.554c-9.696,0-17.557-7.86-17.557-17.554
		c0-9.699,7.861-17.558,17.557-17.558C297.493,324.757,305.352,332.617,305.352,342.315z"/>
	<path style="fill:#90C8EC;" d="M207.063,350.506h-45.439c-4.523,0-8.19-3.667-8.19-8.19c0-4.524,3.667-8.19,8.19-8.19h45.439
		c4.523,0,8.19,3.666,8.19,8.19C215.253,346.838,211.586,350.506,207.063,350.506z"/>
</g>
<g>
	<path style="fill:#578CAD;" d="M161.623,229.968c0,9.697-7.862,17.558-17.556,17.558H80.889c-9.696,0-17.558-7.861-17.558-17.558
		l0,0c0-9.694,7.862-17.554,17.558-17.554h63.179C153.762,212.414,161.623,220.273,161.623,229.968L161.623,229.968z"/>
	<path style="fill:#578CAD;" d="M305.263,229.968c0,9.697-7.86,17.558-17.557,17.558h-63.178c-9.695,0-17.556-7.861-17.556-17.558
		l0,0c0-9.694,7.861-17.554,17.556-17.554h63.178C297.403,212.414,305.263,220.273,305.263,229.968L305.263,229.968z"/>
</g>
<path style="fill:#90C8EC;" d="M443.59,206.954c-12.691,0-23.016,10.325-23.016,23.016s10.325,23.016,23.016,23.016
	c12.692,0,23.017-10.325,23.017-23.016S456.282,206.954,443.59,206.954z"/>
<g>
	<path style="opacity:0.1;fill:#231F20;enable-background:new    ;" d="M17.473,340.974v-70.947v-0.002
		c0-1.309,0.122-2.589,0.299-3.852c-0.176-1.262-0.299-2.542-0.299-3.852v-0.002v-70.947c0-14.377,10.925-26.197,24.924-27.618
		c0.933-0.096,1.881-0.144,2.839-0.144h-1.982h-1.691h-6.055h-7.745c-0.959,0-1.906,0.048-2.839,0.144
		C10.925,165.176,0,176.996,0,191.373v70.947v0.002c0,1.309,0.122,2.589,0.298,3.852C0.122,267.437,0,268.716,0,270.026v0.002
		v70.947c0,14.377,10.925,26.197,24.924,27.618c0.933,0.096,1.881,0.144,2.839,0.144h7.745h6.055h1.691h1.982
		c-0.959,0-1.906-0.048-2.839-0.144C28.398,367.173,17.473,355.352,17.473,340.974z"/>
	<path style="opacity:0.1;fill:#231F20;enable-background:new    ;" d="M130.04,145.023v-4.13c0-10.268,8.323-18.589,18.589-18.589
		h-17.473c-10.266,0-18.589,8.321-18.589,18.589v4.13c0,10.264,8.323,18.588,18.589,18.588h17.473
		C138.363,163.611,130.04,155.287,130.04,145.023z"/>
	<path style="opacity:0.1;fill:#231F20;enable-background:new    ;" d="M80.803,229.968c0-9.694,7.862-17.554,17.558-17.554H80.889
		c-9.696,0-17.558,7.86-17.558,17.554c0,9.697,7.862,17.558,17.558,17.558h17.473C88.665,247.526,80.803,239.665,80.803,229.968z"/>
	<path style="opacity:0.1;fill:#231F20;enable-background:new    ;" d="M224.445,229.968c0-9.694,7.861-17.554,17.556-17.554
		h-17.473c-9.695,0-17.556,7.86-17.556,17.554c0,9.697,7.861,17.558,17.556,17.558h17.473
		C232.307,247.526,224.445,239.665,224.445,229.968z"/>
	<path style="opacity:0.1;fill:#231F20;enable-background:new    ;" d="M438.047,229.97c0-9.598,5.91-17.835,14.28-21.283
		c-2.696-1.111-5.644-1.733-8.736-1.733c-12.691,0-23.016,10.325-23.016,23.016s10.325,23.016,23.016,23.016
		c3.093,0,6.04-0.622,8.736-1.733C443.957,247.805,438.047,239.568,438.047,229.97z"/>
	<path style="opacity:0.1;fill:#231F20;enable-background:new    ;" d="M50.986,342.313c0-23.178,16.649-42.457,38.64-46.56
		c-2.833-0.527-5.751-0.817-8.736-0.817c-26.166,0-47.377,21.213-47.377,47.377c0,26.167,21.211,47.378,47.377,47.378
		c2.986,0,5.904-0.289,8.736-0.818C67.635,384.771,50.986,365.494,50.986,342.313z"/>
	<path style="opacity:0.1;fill:#231F20;enable-background:new    ;" d="M257.891,342.313c0-23.178,16.652-42.457,38.641-46.56
		c-2.834-0.527-5.751-0.817-8.736-0.817c-26.165,0-47.378,21.213-47.378,47.377c0,26.167,21.213,47.378,47.378,47.378
		c2.986,0,5.903-0.289,8.736-0.818C274.543,384.771,257.891,365.494,257.891,342.313z"/>
</g>
</svg>