<?xml version="1.0" encoding="iso-8859-1"?>
<!-- Uploaded to: SVG Repo, www.svgrepo.com, Generator: SVG Repo Mixer Tools -->
<svg version="1.1" id="Layer_1" xmlns="http://www.w3.org/2000/svg" xmlns:xlink="http://www.w3.org/1999/xlink" 
	 viewBox="0 0 512 512" xml:space="preserve">
<g>
	<path style="fill:#FFC674;" d="M403.473,163.156c-22.121,1.526-40.041,19.447-41.566,41.568
		c-1.808,26.213,18.921,48.039,44.749,48.039v19.606c0,24.775,20.084,44.859,44.859,44.859l0,0V207.904
		C451.515,182.077,429.687,161.348,403.473,163.156z"/>
	<path style="fill:#FFC674;" d="M445.016,223.729c-22.121,1.526-40.041,19.447-41.566,41.568
		c-1.808,26.213,18.921,48.039,44.749,48.039v19.606c0,24.775,20.084,44.859,44.859,44.859l0,0V268.478
		C493.058,242.651,471.231,221.921,445.016,223.729z"/>
</g>
<rect x="18.943" y="12.225" style="fill:#E3A9ED;" width="308.197" height="487.546"/>
<rect x="77.37" y="72.578" style="fill:#6D529F;" width="191.341" height="95.023"/>
<path d="M268.711,179.832H77.371c-6.75,0-12.225-5.474-12.225-12.225V72.581c0-6.75,5.474-12.225,12.225-12.225h191.34
	c6.75,0,12.225,5.474,12.225,12.225v95.026C280.936,174.359,275.462,179.832,268.711,179.832z M89.596,155.382h166.89V84.805H89.596
	V155.382z"/>
<circle style="fill:#FFC674;" cx="173.041" cy="357.658" r="100.89"/>
<path d="M173.042,470.782c-62.374,0-113.12-50.746-113.12-113.12s50.746-113.12,113.12-113.12s113.12,50.746,113.12,113.12
	S235.416,470.782,173.042,470.782z M173.042,268.991c-48.893,0-88.671,39.778-88.671,88.671s39.778,88.671,88.671,88.671
	s88.671-39.778,88.671-88.671S221.935,268.991,173.042,268.991z"/>
<circle style="fill:#E0E381;" cx="173.041" cy="357.658" r="49.168"/>
<path d="M173.042,419.059c-33.854,0-61.397-27.542-61.397-61.397s27.542-61.396,61.397-61.396c33.853,0,61.396,27.541,61.396,61.396
	S206.895,419.059,173.042,419.059z M173.042,320.716c-20.372,0-36.948,16.574-36.948,36.947c0,20.372,16.575,36.948,36.948,36.948
	s36.947-16.575,36.947-36.948C209.989,337.291,193.414,320.716,173.042,320.716z"/>
<path d="M487.142,226.743c-6.782-6.33-14.769-10.791-23.404-13.217v-5.62c0-15.765-6.611-30.977-18.14-41.739
	c-11.69-10.912-26.942-16.313-42.966-15.206c-28.224,1.947-50.975,24.699-52.921,52.923c-1.104,16.018,4.298,31.276,15.209,42.966
	c7.215,7.73,16.435,13.241,26.479,16.038c-0.051,0.522-0.109,1.043-0.145,1.568c-1.104,16.017,4.298,31.276,15.209,42.966
	c0.053,0.056,0.108,0.109,0.16,0.165c7.363,9.363,17.595,16.358,29.352,19.689v5.666c0,6.716,1.175,13.162,3.315,19.152V459.86
	c0,15.267-12.422,27.689-27.689,27.689h-72.236V12.225C339.364,5.474,333.89,0,327.139,0H18.942C12.192,0,6.717,5.474,6.717,12.225
	v487.551c0,6.75,5.474,12.225,12.225,12.225h305.231h2.967h84.46c28.75,0,52.138-23.39,52.138-52.138v-0.776
	c23.172-1.586,41.543-20.931,41.543-44.499v-36.784v-5.137V268.478C505.283,252.715,498.671,237.502,487.142,226.743z
	 M31.167,227.728h214.876c6.75,0,12.225-5.474,12.225-12.225s-5.474-12.225-12.225-12.225H31.167V24.449h283.748v463.101H31.167
	V227.728z M480.833,268.478v94.723c-11.955-4.848-20.409-16.584-20.409-30.259v-19.606c0-6.75-5.474-12.225-12.225-12.225
	c-9.144,0-17.619-3.685-23.864-10.373c-6.237-6.682-9.324-15.419-8.689-24.601c1.111-16.113,14.099-29.101,30.212-30.212
	c9.176-0.634,17.919,2.454,24.602,8.689C477.149,250.86,480.833,259.334,480.833,268.478z M382.793,230.166
	c-6.237-6.682-9.324-15.419-8.689-24.602c1.11-16.113,14.099-29.101,30.212-30.212c9.18-0.636,17.919,2.453,24.601,8.688
	c6.689,6.243,10.373,14.72,10.373,23.864v4.187c-17.145,2.694-31.815,13.106-40.318,27.539
	C392.824,238.16,387.241,234.931,382.793,230.166z M463.739,434.493V381.9c5.216,3.136,10.974,5.453,17.094,6.796v25.891
	C480.833,424.658,473.402,433.005,463.739,434.493z"/>
<path d="M282.124,227.724c-0.795,0-1.603-0.075-2.396-0.232c-0.77-0.159-1.542-0.391-2.286-0.697
	c-0.735-0.306-1.444-0.685-2.104-1.125c-0.672-0.452-1.296-0.952-1.858-1.528c-0.562-0.562-1.076-1.186-1.516-1.858
	c-0.452-0.66-0.819-1.369-1.125-2.103c-0.306-0.746-0.55-1.516-0.709-2.286c-0.159-0.795-0.231-1.603-0.231-2.396
	c0-0.795,0.073-1.603,0.231-2.384c0.159-0.784,0.391-1.554,0.697-2.286c0.306-0.746,0.685-1.455,1.125-2.115
	c0.452-0.672,0.966-1.296,1.528-1.858s1.186-1.076,1.858-1.516c0.66-0.439,1.369-0.819,2.104-1.125
	c0.744-0.306,1.516-0.537,2.286-0.697c1.577-0.318,3.203-0.318,4.779,0c0.784,0.16,1.554,0.391,2.286,0.697
	c0.746,0.306,1.455,0.686,2.115,1.125c0.672,0.44,1.296,0.954,1.858,1.516s1.076,1.186,1.516,1.858
	c0.44,0.66,0.819,1.369,1.125,2.115c0.306,0.733,0.55,1.502,0.697,2.286c0.159,0.782,0.244,1.589,0.244,2.384
	c0,0.793-0.086,1.601-0.244,2.396c-0.159,0.77-0.391,1.54-0.697,2.286c-0.306,0.733-0.685,1.443-1.125,2.103
	c-0.44,0.672-0.954,1.296-1.516,1.858c-0.562,0.576-1.186,1.076-1.858,1.528c-0.66,0.44-1.369,0.819-2.115,1.125
	c-0.733,0.306-1.502,0.538-2.286,0.697C283.726,227.651,282.919,227.724,282.124,227.724z"/>
</svg>