<?xml version="1.0" encoding="iso-8859-1"?>
<!-- Uploaded to: SVG Repo, www.svgrepo.com, Generator: SVG Repo Mixer Tools -->
<svg version="1.1" id="Layer_1" xmlns="http://www.w3.org/2000/svg" xmlns:xlink="http://www.w3.org/1999/xlink" 
	 viewBox="0 0 512 512" xml:space="preserve">
<path style="fill:#87DFD6;" d="M256,389.565c49.178,0,89.043,39.866,89.043,89.043H166.957
	C166.957,429.431,206.822,389.565,256,389.565z"/>
<path style="fill:#C8F4DE;" d="M256,122.435c49.178,0,89.043-39.866,89.043-89.043H166.957
	C166.957,82.569,206.822,122.435,256,122.435z"/>
<g>
	<rect x="11.13" y="166.957" style="fill:#87DFD6;" width="155.826" height="178.087"/>
	<polygon style="fill:#87DFD6;" points="345.043,166.957 345.043,345.043 500.87,345.043 500.87,278.261 500.87,211.479 
		500.87,166.957 	"/>
</g>
<rect x="166.957" y="122.435" style="fill:#4A7DBA;" width="178.087" height="267.13"/>
<rect x="166.957" y="345.043" style="fill:#C8F4DE;" width="178.087" height="44.522"/>
<path d="M500.87,155.826h-77.913h-66.783v-33.391c0-6.146-4.983-11.13-11.13-11.13h-26.158
	c22.727-18.38,37.288-46.476,37.288-77.913c0-6.146-4.983-11.13-11.13-11.13H267.13V11.13C267.13,4.984,262.147,0,256,0
	s-11.13,4.984-11.13,11.13v11.13h-77.913c-6.147,0-11.13,4.984-11.13,11.13c0,31.437,14.561,59.533,37.288,77.913h-26.158
	c-6.147,0-11.13,4.984-11.13,11.13v33.391H89.043H11.13c-6.147,0-11.13,4.984-11.13,11.13v178.087c0,6.146,4.983,11.13,11.13,11.13
	h77.913h66.783v33.391c0,6.146,4.983,11.13,11.13,11.13h26.158c-22.727,18.38-37.288,46.476-37.288,77.913
	c0,6.146,4.983,11.13,11.13,11.13h77.913v11.13c0,6.146,4.983,11.13,11.13,11.13s11.13-4.984,11.13-11.13v-11.13h77.913
	c6.147,0,11.13-4.984,11.13-11.13c0-31.437-14.561-59.533-37.288-77.913h26.158c6.147,0,11.13-4.984,11.13-11.13v-33.391h66.783
	h77.913c6.147,0,11.13-4.984,11.13-11.13v-66.783c0-6.146-4.983-11.13-11.13-11.13c-6.147,0-11.13,4.984-11.13,11.13v55.652h-55.652
	V178.087h55.652v33.392c0,6.146,4.983,11.13,11.13,11.13c6.147,0,11.13-4.984,11.13-11.13v-44.523
	C512,160.81,507.017,155.826,500.87,155.826z M178.879,44.522h154.241c-5.417,37.708-37.938,66.783-77.121,66.783
	S184.297,82.229,178.879,44.522z M178.087,133.565h155.826v33.391v166.957H178.087V166.957V133.565z M22.261,178.087h55.652v155.826
	H22.261V178.087z M100.174,178.087h55.652v155.826h-55.652V178.087z M333.121,467.478H178.879
	c5.417-37.708,37.938-66.783,77.121-66.783S327.703,429.771,333.121,467.478z M333.913,378.435H178.087v-22.261h155.826V378.435z
	 M411.826,333.913h-55.652V178.087h55.652V333.913z"/>
<path d="M510.119,238.692c-0.401-0.613-0.868-1.181-1.38-1.693c-0.512-0.512-1.08-0.979-1.692-1.38
	c-0.601-0.4-1.247-0.746-1.926-1.024c-0.668-0.278-1.369-0.489-2.081-0.633c-1.436-0.291-2.916-0.291-4.352,0
	c-0.701,0.145-1.402,0.355-2.081,0.633c-0.668,0.278-1.313,0.624-1.914,1.024c-0.612,0.401-1.18,0.868-1.692,1.38
	c-0.512,0.512-0.979,1.08-1.38,1.693c-0.401,0.6-0.746,1.245-1.024,1.924c-0.278,0.668-0.49,1.369-0.634,2.081
	c-0.145,0.712-0.223,1.447-0.223,2.17c0,0.722,0.078,1.458,0.223,2.182c0.145,0.701,0.356,1.402,0.634,2.081
	c0.278,0.668,0.623,1.313,1.024,1.914c0.401,0.612,0.868,1.18,1.38,1.692c2.07,2.07,4.942,3.262,7.869,3.262
	c0.723,0,1.458-0.068,2.17-0.211c0.712-0.145,1.414-0.356,2.081-0.634c0.679-0.278,1.325-0.623,1.926-1.024
	c0.612-0.411,1.18-0.879,1.692-1.391s0.979-1.08,1.38-1.692c0.401-0.601,0.746-1.247,1.024-1.914
	c0.278-0.679,0.501-1.38,0.634-2.081c0.145-0.723,0.223-1.459,0.223-2.182c0-0.723-0.078-1.459-0.223-2.17
	c-0.145-0.711-0.356-1.415-0.634-2.081C510.865,239.938,510.52,239.292,510.119,238.692z"/>
<path d="M256,178.087h44.522c6.147,0,11.13-4.984,11.13-11.13c0-6.146-4.983-11.13-11.13-11.13H256
	c-6.147,0-11.13,4.984-11.13,11.13C244.87,173.103,249.853,178.087,256,178.087z"/>
</svg>