<?xml version="1.0" encoding="utf-8"?><!-- Uploaded to: SVG Repo, www.svgrepo.com, Generator: SVG Repo Mixer Tools -->
<svg version="1.1" id="Uploaded to svgrepo.com" xmlns="http://www.w3.org/2000/svg" xmlns:xlink="http://www.w3.org/1999/xlink" 
	 width="800px" height="800px" viewBox="0 0 32 32" xml:space="preserve">
<style type="text/css">
	.hatch_een{fill:#265AA5;}
	.hatch_twee{fill:#FFC5BB;}
</style>
<g>
	<path class="hatch_twee" d="M26.462,20.638c0.19,0.303,0.336,0.636,0.426,0.991l-4.262,4.265c-0.356-0.091-0.688-0.239-0.991-0.429
		L26.462,20.638z M14.072,6.447L12,7v1.52L14.072,6.447z M20.044,23.065c0.06,0.379,0.182,0.734,0.353,1.062l4.726-4.729
		c-0.328-0.171-0.683-0.293-1.062-0.353L20.044,23.065z M19.527,4.993l-1.928,0.514L12,11.105v1.414L19.527,4.993z M9.122,23.397
		c-0.328-0.171-0.682-0.293-1.061-0.353l-4.019,4.017c0.06,0.379,0.183,0.734,0.354,1.062L9.122,23.397z M27,8.105l-1.22,1.22L27,9
		V8.105z M10.888,25.63c-0.091-0.356-0.233-0.688-0.423-0.991l-4.828,4.828c0.303,0.19,0.633,0.334,0.989,0.425L10.888,25.63z
		 M24.981,3.538l-1.928,0.514l-8.182,8.182l1.928-0.514L24.981,3.538z M27,5.52V4.105l-6.674,6.674l1.928-0.514L27,5.52z"/>
	<path class="hatch_een" d="M27.609,2.207C27.433,2.071,27.218,2,27,2c-0.086,0-15.258,4.034-15.258,4.034
		C11.305,6.151,11,6.547,11,7v16.707C10.175,22.675,8.921,22,7.5,22C5.019,22,3,24.019,3,26.5S5.019,31,7.5,31
		c2.454,0,4.457-1.977,4.5-4.421V14.047l15-4.012v9.671C26.175,18.675,24.921,18,23.5,18c-2.481,0-4.5,2.019-4.5,4.5
		s2.019,4.5,4.5,4.5c2.395,0,4.367-1.886,4.5-4.249V3C28,2.689,27.856,2.396,27.609,2.207z M7.5,30C5.567,30,4,28.433,4,26.5
		S5.567,23,7.5,23s3.5,1.567,3.5,3.5S9.433,30,7.5,30z M23.5,26c-1.933,0-3.5-1.567-3.5-3.5s1.567-3.5,3.5-3.5s3.5,1.567,3.5,3.5
		S25.433,26,23.5,26z M27,9l-15,4V7l15-4V9z"/>
</g>
</svg>