<?xml version="1.0" encoding="iso-8859-1"?>
<!-- Uploaded to: SVG Repo, www.svgrepo.com, Generator: SVG Repo Mixer Tools -->
<svg version="1.1" id="Layer_1" xmlns="http://www.w3.org/2000/svg" xmlns:xlink="http://www.w3.org/1999/xlink" 
	 viewBox="0 0 512 512" xml:space="preserve">
<g>
	<path style="fill:#FFFFFF;" d="M183.48,163.1c0,8.472-3.144,13.152-8.664,13.152c-4.864,0-8.168-4.56-8.232-12.8
		c-0.064-8.24,3.6-12.952,8.656-12.952C180.496,150.508,183.48,155.188,183.48,163.1z M169.952,163.484c0,6.48,2,10.16,5.064,10.16
		c3.456,0,5.104-4,5.104-10.4c0-6.136-1.6-10.16-5.064-10.16c-2.952,0.048-5.104,3.616-5.104,10.424V163.484z"/>
	<path style="fill:#FFFFFF;" d="M186.88,160.364c-0.104-1.256,0.832-2.368,2.088-2.472s2.368,0.832,2.472,2.088
		c0.008,0.128,0.008,0.256,0,0.384c0,1.256-1.016,2.28-2.28,2.28C187.904,162.652,186.88,161.628,186.88,160.364
		C186.88,160.372,186.88,160.372,186.88,160.364z M186.88,173.892c-0.104-1.256,0.832-2.368,2.088-2.472s2.368,0.832,2.472,2.088
		c0.008,0.128,0.008,0.256,0,0.384c0,1.256-1.016,2.28-2.28,2.28C187.904,176.18,186.88,175.156,186.88,173.892
		C186.88,173.9,186.88,173.9,186.88,173.892z"/>
	<path style="fill:#FFFFFF;" d="M211.12,163.1c0,8.472-3.144,13.152-8.664,13.152c-4.864,0-8.168-4.56-8.232-12.8
		c-0.064-8.24,3.6-12.952,8.656-12.952C208.136,150.508,211.12,155.188,211.12,163.1z M197.592,163.484
		c0,6.48,1.992,10.16,5.064,10.16c3.456,0,5.104-4,5.104-10.4c0-6.136-1.6-10.16-5.064-10.16c-2.96,0.048-5.096,3.616-5.096,10.424
		L197.592,163.484z"/>
	<path style="fill:#FFFFFF;" d="M230.8,163.1c0,8.472-3.144,13.152-8.664,13.152c-4.864,0-8.168-4.56-8.232-12.8
		c-0.064-8.24,3.6-12.952,8.656-12.952C227.816,150.508,230.8,155.188,230.8,163.1z M217.272,163.484
		c0,6.48,1.992,10.16,5.064,10.16c3.456,0,5.104-4,5.104-10.4c0-6.136-1.6-10.16-5.064-10.16c-2.952,0.048-5.104,3.616-5.104,10.424
		V163.484z"/>
	<rect x="4" y="263.132" style="fill:#FFFFFF;" width="504" height="94.328"/>
</g>
<path style="fill:#BCBCBC;" d="M504,267.1v86.4H8v-86.4H504 M512,259.1H0v102.4h512V259.1z"/>
<rect y="259.124" style="fill:#E21B1B;" width="102.336" height="102.336"/>
<polygon style="fill:#FFFFFF;" points="78.04,311.308 36.872,287.548 36.872,335.076 "/>
<rect x="151.592" y="305.276" style="fill:#666666;" width="232.32" height="8"/>
<circle style="fill:#E21B1B;" cx="200.24" cy="310.78" r="16.576"/>
<g>
	<rect x="436.08" y="286.732" style="fill:#666666;" width="8" height="45.096"/>
	<rect x="464.16" y="286.732" style="fill:#666666;" width="8" height="45.096"/>
</g>
</svg>