<?xml version="1.0" encoding="iso-8859-1"?>
<!-- Uploaded to: SVG Repo, www.svgrepo.com, Generator: SVG Repo Mixer Tools -->
<svg version="1.1" id="Layer_1" xmlns="http://www.w3.org/2000/svg" xmlns:xlink="http://www.w3.org/1999/xlink" 
	 viewBox="0 0 512.016 512.016" xml:space="preserve">
<rect x="4.208" y="50.616" style="fill:#FFFFFF;" width="377.6" height="270.2"/>
<path style="fill:#D6D6D6;" d="M377.264,57.832v259.784H8V57.832H377.264 M385.264,49.832H0v275.784h385.264V49.832L385.264,49.832z
	"/>
<path d="M0,60V12.048c0-6.624,5.416-12.04,12.04-12.04H373.2c6.624,0,12.04,5.416,12.04,12.04V60H0z"/>
<polygon style="fill:#FFFFFF;" points="354.888,46.56 129.072,46.56 150.68,13.448 354.888,13.448 "/>
<circle style="fill:#E50914;" cx="40.56" cy="29.56" r="10.24"/>
<circle style="fill:#939393;" cx="67.704" cy="29.56" r="10.24"/>
<circle style="fill:#D6D6D6;" cx="94.856" cy="29.56" r="10.24"/>
<path d="M162.2,23.952l1.424,6.176c0.312,1.456,0.616,2.936,0.864,4.416h0.056c0.28-1.48,0.736-2.992,1.128-4.384l1.76-6.208h2.8
	l1.704,6.04c0.424,1.592,0.784,3.072,1.096,4.552h0.056c0.216-1.48,0.528-2.96,0.888-4.552l1.512-6.04h3.376l-4.272,13.616h-3.184
	l-1.616-5.536c-0.424-1.424-0.728-2.712-1.04-4.36h-0.056c-0.28,1.672-0.64,3.016-1.032,4.36l-1.744,5.528h-3.216l-4.024-13.616
	h3.52V23.952z"/>
<path d="M183.616,23.952l1.424,6.176c0.312,1.456,0.616,2.936,0.864,4.416h0.064c0.272-1.48,0.728-2.992,1.12-4.384l1.76-6.208h2.8
	l1.704,6.04c0.424,1.592,0.784,3.072,1.096,4.552h0.056c0.216-1.48,0.528-2.96,0.888-4.552l1.512-6.04h3.384L196,37.56h-3.184
	l-1.616-5.536c-0.424-1.424-0.728-2.712-1.04-4.36h-0.056c-0.28,1.672-0.64,3.016-1.032,4.36l-1.736,5.536h-3.216l-4.024-13.616
	h3.52L183.616,23.952L183.616,23.952z"/>
<path d="M205.04,23.952l1.424,6.176c0.312,1.456,0.616,2.936,0.864,4.416h0.064c0.272-1.48,0.728-2.992,1.12-4.384l1.76-6.208h2.8
	l1.704,6.04c0.424,1.592,0.784,3.072,1.096,4.552h0.056c0.216-1.48,0.528-2.96,0.888-4.552l1.512-6.04h3.384l-4.28,13.616h-3.184
	l-1.616-5.536c-0.424-1.424-0.728-2.712-1.04-4.36h-0.072c-0.28,1.672-0.64,3.016-1.032,4.36l-1.736,5.536h-3.216l-4.024-13.616
	L205.04,23.952z"/>
<path d="M222.28,35.664c0-1.288,0.896-2.208,2.128-2.208c1.256,0,2.128,0.896,2.128,2.208c0,1.256-0.832,2.208-2.128,2.208
	C223.152,37.872,222.28,36.92,222.28,35.664z"/>
<rect y="316.008" width="385.28" height="9.608"/>
<polygon points="257.864,319.488 127.4,319.488 145.464,305.76 239.808,305.76 "/>
<rect x="126.736" y="236.224" width="385.28" height="275.784"/>
<path style="fill:#D6D6D6;" d="M126.736,246.4v-47.952c0-6.624,5.416-12.04,12.04-12.04h361.16c6.624,0,12.04,5.416,12.04,12.04
	V246.4H126.736z"/>
<polygon style="fill:#FFFFFF;" points="481.616,232.952 255.808,232.952 277.408,199.848 481.616,199.848 "/>
<circle style="fill:#E50914;" cx="167.296" cy="215.952" r="10.24"/>
<circle style="fill:#939393;" cx="194.44" cy="215.952" r="10.24"/>
<circle style="fill:#C9C9C9;" cx="221.584" cy="215.952" r="10.24"/>
<path d="M288.936,210.344l1.424,6.176c0.312,1.456,0.616,2.936,0.864,4.416h0.056c0.28-1.48,0.736-2.992,1.128-4.384l1.76-6.208h2.8
	l1.704,6.04c0.424,1.592,0.784,3.072,1.096,4.552h0.056c0.216-1.48,0.528-2.96,0.888-4.552l1.512-6.04h3.376l-4.272,13.616h-3.184
	l-1.616-5.536c-0.424-1.424-0.728-2.712-1.04-4.36h-0.056c-0.28,1.672-0.64,3.016-1.032,4.36l-1.736,5.536h-3.224l-4.024-13.616
	H288.936z"/>
<path d="M310.352,210.344l1.424,6.176c0.312,1.456,0.616,2.936,0.864,4.416h0.064c0.272-1.48,0.728-2.992,1.12-4.384l1.76-6.208h2.8
	l1.704,6.04c0.424,1.592,0.784,3.072,1.096,4.552h0.056c0.216-1.48,0.528-2.96,0.888-4.552l1.512-6.04h3.384l-4.28,13.616h-3.184
	l-1.616-5.536c-0.424-1.424-0.728-2.712-1.04-4.36h-0.056c-0.28,1.672-0.64,3.016-1.032,4.36l-1.736,5.536h-3.216l-4.024-13.616
	H310.352z"/>
<path d="M331.776,210.344l1.424,6.176c0.312,1.456,0.616,2.936,0.864,4.416h0.064c0.272-1.48,0.728-2.992,1.12-4.384l1.76-6.208h2.8
	l1.704,6.04c0.424,1.592,0.784,3.072,1.096,4.552h0.056c0.216-1.48,0.528-2.96,0.888-4.552l1.512-6.04h3.384l-4.28,13.616h-3.184
	l-1.616-5.536c-0.424-1.424-0.728-2.712-1.04-4.36h-0.056c-0.28,1.672-0.64,3.016-1.032,4.36l-1.736,5.536h-3.216l-4.024-13.616
	H331.776z"/>
<path d="M349.016,222.056c0-1.288,0.896-2.208,2.128-2.208c1.256,0,2.128,0.896,2.128,2.208c0,1.256-0.832,2.208-2.128,2.208
	C349.88,224.264,349.016,223.312,349.016,222.056z"/>
<g>
	<rect x="126.736" y="502.4" style="fill:#D6D6D6;" width="385.28" height="9.608"/>
	<polygon style="fill:#D6D6D6;" points="384.6,505.888 254.136,505.888 272.192,492.152 366.536,492.152 	"/>
</g>
<polygon points="331.352,39.504 329.2,37.4 336.648,29.752 328.76,22.064 330.864,19.912 340.904,29.696 "/>
<rect x="317.256" y="28.216" width="19.872" height="3.008"/>
<polygon points="458.088,225.896 455.936,223.792 463.376,216.144 455.488,208.456 457.592,206.304 467.632,216.088 "/>
<rect x="444" y="214.608" width="19.872" height="3.008"/>
</svg>